<svg width="49" height="47" viewBox="0 0 49 47" fill="none" xmlns="http://www.w3.org/2000/svg">
<g clip-path="url(#clip0_16_10359)">
<path opacity="0.93" d="M38.9134 38.6684L36.8058 36.7458C39.2607 33.5705 40.6061 29.5599 40.6061 25.4173C40.6061 21.2745 39.2607 17.2641 36.8058 14.0887L38.9134 12.166C41.7932 15.8762 43.3721 20.5689 43.3721 25.4173C43.3721 30.2655 41.7932 34.9583 38.9134 38.6684Z" fill="#2BAC8C"/>
<path d="M10.1393 38.6684C7.25955 34.9583 5.68054 30.2655 5.68054 25.4173C5.68054 20.5689 7.25955 15.8762 10.1393 12.166L12.2469 14.0887C9.79203 17.2641 8.44663 21.2745 8.44663 25.4173C8.44663 29.5599 9.79203 33.5705 12.2469 36.7458L10.1393 38.6684Z" fill="#2BAC8C"/>
<path opacity="0.93" d="M42.8763 42.3109L40.7605 40.3883C44.0139 36.1965 45.7978 30.8948 45.7978 25.4173C45.7978 19.9397 44.0139 14.638 40.7605 10.4463L42.8763 8.51482C46.5445 13.248 48.5554 19.2315 48.5554 25.4129C48.5554 31.5942 46.5445 37.5777 42.8763 42.3109Z" fill="#2BAC8C"/>
<path d="M6.18455 42.3109C2.51024 37.5807 0.495361 31.5961 0.495361 25.4129C0.495361 19.2296 2.51024 13.245 6.18455 8.51482L8.29215 10.4463C5.03878 14.638 3.25493 19.9397 3.25493 25.4173C3.25493 30.8948 5.03878 36.1965 8.29215 40.3883L6.18455 42.3109Z" fill="#2BAC8C"/>
<path fill-rule="evenodd" clip-rule="evenodd" d="M26.0562 38.1043C28.7567 37.7643 31.2888 36.4473 33.2301 34.3433C35.4999 31.8832 36.777 28.5479 36.7813 25.0688C36.7813 22.1407 34.9016 17.3871 31.2072 10.9577C28.7018 6.60487 26.2389 2.9967 25.8341 2.40374C25.805 2.36115 25.7866 2.33411 25.7795 2.32347L24.6728 0.735977L23.5742 2.32347C23.4603 2.48223 20.8238 6.29222 18.1384 10.9577C14.444 17.3695 12.5724 22.1231 12.5724 25.0688C12.5745 28.547 13.8498 31.8823 16.1184 34.3427C18.0605 36.449 20.5948 37.7668 23.2975 38.1053V45.7594H26.0562V38.1043ZM26.0562 35.1024C28.0324 34.7861 29.8767 33.7898 31.3063 32.2405C33.0613 30.3385 34.0471 27.7587 34.0471 25.0688C34.0146 20.7472 28.0336 10.8078 24.6728 5.72778C21.312 10.8078 15.3309 20.7208 15.3309 25.0688C15.3309 27.7587 16.3169 30.3385 18.0719 32.2405C19.4955 33.7835 21.3305 34.7779 23.2975 35.0985V30.0056L19.2944 26.9631L20.8783 24.5153L23.2975 26.354V22.7407H26.0562V29.1305L28.2339 26.4086L30.318 28.3673L26.0562 33.6941V35.1024Z" fill="#2BAC8C"/>
</g>
<defs>
<clipPath id="clip0_16_10359">
<rect width="49" height="46.4776" fill="white"/>
</clipPath>
</defs>
</svg>
